# xmcd
#
# Track frame offsets:
#	182
#	14780
#	29867
#	47375
#	61902
#	76685
#	90200
#	101037
#	119000
#	139495
#	153042
#	164130
#	176695
#	191667
#	202405
#	212525
#
# Disc length: 3041
#
# Revision: 2
# Processed by: cddbd v1.5.1PL0 Copyright (c) Steve Scherf et al.
# Submitted via: EasyCDDAExtractor 5.0.6
# Normalized: r1:TDELIM( - )
#
DISCID=e60bdf10
DTITLE=Stars von heute - 32 unvergessliche Schlager CD 2
DYEAR=1994
DGENRE=ethnic
TTITLE0=Vreni and Rudi - Wo der Wildbach rauscht
TTITLE1=Die jungen Klostertaler - Die Berge, die sind mein Zuhaus
TTITLE2=Fricktaler Musikanten - Medeley: Zwei Spuren im Schnee - Skiexpress
TTITLE3=Maja Brunner - Muss i denn, zum Städtele hinaus
TTITLE4=Freddy Breck - Rosamunde
TTITLE5=Hellberg Duo - Drei weisse Birken
TTITLE6=Peter Hinnen - Ku-Ku-Jodel
TTITLE7=Ivan Rebroff - Im tiefen Keller
TTITLE8=Rolf and Roland - MEDLEY: Die Wahrheit - Zwei Rehbraune Augen Rosmarie - Schwarzwaldmädel
TTITLE9=Monika Hauff and Klaus Dieter Henkler - Kufstein-Lied
TTITLE10=Mooskirchner - Schützenliesel
TTITLE11=Anja and Rainer - Du bist die Rose vom Wörthersee
TTITLE12=Arno and Carlo - Alte Kameraden (Lupf Diis Bei)
TTITLE13=Andrea and Gunter - Trompeten-Echo
TTITLE14=Maria and Margot Hellwig - Die Fischerin vom Bodensee
TTITLE15=Zillertaler Vagabunden - Zillertaler Hochzeitsmarsch
EXTD=
EXTT0=
EXTT1=
EXTT2=
EXTT3=
EXTT4=
EXTT5=
EXTT6=
EXTT7=
EXTT8=
EXTT9=
EXTT10=
EXTT11=
EXTT12=
EXTT13=
EXTT14=
EXTT15=
PLAYORDER=
